<?xml version="1.0" encoding="UTF-8"?>
<svg version="1.1" xmlns="http://www.w3.org/2000/svg" width="650" height="112">
<path d="M0 0 C1.71120781 0.0001133 1.71120781 0.0001133 3.45698547 0.00022888 C5.28848396 0.00797081 5.28848396 0.00797081 7.15698242 0.01586914 C8.41508224 0.01728409 9.67318207 0.01869904 10.96940613 0.02015686 C14.30173646 0.02479966 17.63399749 0.03377311 20.96630859 0.04486084 C24.37165734 0.05512036 27.77701327 0.05966418 31.18237305 0.06469727 C37.85491815 0.07571709 44.52743066 0.09244839 51.19995117 0.11352539 C50.72135876 1.71786348 50.24205559 3.32198955 49.76245117 4.92602539 C49.49561523 5.8193457 49.2287793 6.71266602 48.95385742 7.63305664 C48.39607244 9.46825594 47.80650542 11.29386265 47.19995117 13.11352539 C46.60384033 13.11939163 46.00772949 13.12525787 45.39355469 13.13130188 C39.16351259 13.19546301 32.93397623 13.27994044 26.7043457 13.37597656 C24.38247363 13.40913692 22.06052266 13.43719626 19.73852539 13.45996094 C16.39199349 13.49367011 13.04617873 13.54599548 9.69995117 13.60180664 C8.66942627 13.60819656 7.63890137 13.61458649 6.57714844 13.62117004 C0.48659812 13.74413595 -4.40574353 14.15022634 -9.80004883 17.11352539 C-10.79004883 19.42352539 -11.78004883 21.73352539 -12.80004883 24.11352539 C16.40495117 24.60852539 16.40495117 24.60852539 46.19995117 25.11352539 C45.19995117 30.11352539 45.19995117 30.11352539 42.19995117 37.11352539 C14.97495117 37.60852539 14.97495117 37.60852539 -12.80004883 38.11352539 C-10.65222248 45.10128566 -10.65222248 45.10128566 -6.35864258 47.01904297 C-0.95426034 48.62979308 4.53955812 48.59194709 10.13745117 48.62524414 C11.25812988 48.64319534 12.37880859 48.66114655 13.53344727 48.67964172 C17.08891108 48.73352883 20.64424229 48.76757179 24.19995117 48.80102539 C26.62054245 48.83421744 29.04111628 48.86870884 31.46166992 48.90454102 C37.37431138 48.9892429 43.28697047 49.05768377 49.19995117 49.11352539 C48.7250622 51.09372282 48.24492259 53.07266174 47.76245117 55.05102539 C47.49561523 56.15317383 47.2287793 57.25532227 46.95385742 58.39086914 C46.19995117 61.11352539 46.19995117 61.11352539 45.19995117 62.11352539 C43.63219668 62.2277271 42.05936078 62.27310989 40.48754883 62.29052734 C39.48204987 62.30336258 38.4765509 62.31619781 37.44058228 62.329422 C36.34281464 62.33680893 35.245047 62.34419586 34.11401367 62.35180664 C32.98732269 62.35987839 31.86063171 62.36795013 30.69979858 62.37626648 C28.30386911 62.39013509 25.90791965 62.40084474 23.51196289 62.40869141 C19.87501346 62.42579003 16.23900006 62.46963835 12.60229492 62.51391602 C10.27287452 62.52405265 7.94344638 62.5325657 5.61401367 62.53930664 C4.53648834 62.55681473 3.45896301 62.57432281 2.3487854 62.59236145 C-6.17567982 62.56831284 -13.3828041 60.74507544 -20.73754883 56.36352539 C-27.65847556 48.8134235 -29.05028166 39.02820038 -28.77832031 29.08935547 C-28.36098571 20.59960555 -26.9231313 14.01737848 -21.55004883 7.30102539 C-14.89917305 2.01055602 -8.47458356 -0.01879065 0 0 Z " fill="#18141D" transform="translate(112.800048828125,9.886474609375)"/>
<path d="M0 0 C1.25102509 0.00424484 2.50205017 0.00848969 3.79098511 0.01286316 C7.08231625 0.02671671 10.37318832 0.05356669 13.66436768 0.0869751 C17.03660528 0.11792055 20.40891068 0.13142022 23.78125 0.14648438 C30.37257214 0.17941335 36.96359236 0.22950705 43.5546875 0.29296875 C43.07609509 1.89730684 42.59679192 3.50143291 42.1171875 5.10546875 C41.85035156 5.99878906 41.58351563 6.89210938 41.30859375 7.8125 C40.75080877 9.6476993 40.16124175 11.47330601 39.5546875 13.29296875 C38.95857666 13.29883499 38.36246582 13.30470123 37.74829102 13.31074524 C31.51824892 13.37490637 25.28871256 13.4593838 19.05908203 13.55541992 C16.73720995 13.58858028 14.41525899 13.61663962 12.09326172 13.6394043 C8.74672982 13.67311347 5.40091506 13.72543884 2.0546875 13.78125 C1.0241626 13.78763992 -0.0063623 13.79402985 -1.06811523 13.8006134 C-7.15138282 13.92343227 -12.09310056 14.25635695 -17.4453125 17.29296875 C-18.4353125 19.93296875 -19.4253125 22.57296875 -20.4453125 25.29296875 C-0.6453125 25.29296875 19.1546875 25.29296875 39.5546875 25.29296875 C37.9046875 29.25296875 36.2546875 33.21296875 34.5546875 37.29296875 C16.4046875 37.29296875 -1.7453125 37.29296875 -20.4453125 37.29296875 C-18.44946091 45.20472252 -18.44946091 45.20472252 -14.00390625 47.26098633 C-8.60122101 48.80235964 -3.08764629 48.77149787 2.4921875 48.8046875 C3.61286621 48.8226387 4.73354492 48.8405899 5.88818359 48.85908508 C9.44364741 48.91297219 12.99897861 48.94701515 16.5546875 48.98046875 C18.97527878 49.0136608 21.39585261 49.0481522 23.81640625 49.08398438 C29.72907068 49.16868659 35.64169724 49.23560108 41.5546875 49.29296875 C40.5646875 53.58296875 39.5746875 57.87296875 38.5546875 62.29296875 C31.3322166 62.36747842 24.10997263 62.4217411 16.88720703 62.45776367 C14.43339131 62.47279099 11.97960217 62.49321855 9.52587891 62.51928711 C5.98593558 62.55593695 2.44634936 62.5727563 -1.09375 62.5859375 C-2.7224855 62.60916328 -2.7224855 62.60916328 -4.38412476 62.63285828 C-13.87488744 62.63492546 -22.66751469 61.37200362 -29.60742188 54.44726562 C-35.27618457 47.80258417 -36.08668056 39.70436818 -35.9453125 31.29296875 C-35.96078125 30.37257813 -35.97625 29.4521875 -35.9921875 28.50390625 C-35.94400046 19.95070682 -33.98561891 12.50729908 -27.8203125 6.35546875 C-20.23431214 -0.38580231 -9.53482623 -0.12352476 0 0 Z " fill="#F24E00" transform="translate(523.4453125,9.70703125)"/>
<path d="M0 0 C1.18084671 0.00007553 2.36169342 0.00015106 3.57832336 0.00022888 C4.84306992 0.00539017 6.10781647 0.01055145 7.41088867 0.01586914 C8.71338058 0.01728409 10.0158725 0.01869904 11.35783386 0.02015686 C14.80852197 0.02396184 18.2591675 0.03377475 21.70983887 0.04486084 C25.23583399 0.0551185 28.76183603 0.05966379 32.2878418 0.06469727 C39.19736441 0.07539895 46.10685887 0.09245096 53.01635742 0.11352539 C52.53945539 1.73919145 52.05976077 3.3640385 51.57885742 4.98852539 C51.31202148 5.89344727 51.04518555 6.79836914 50.77026367 7.73071289 C50.01635742 10.11352539 50.01635742 10.11352539 49.01635742 12.11352539 C48.41802597 12.12161224 47.81969452 12.1296991 47.20323181 12.13803101 C40.95721739 12.22430857 34.71151189 12.32382165 28.46582031 12.4309082 C26.13709718 12.46911318 23.80831675 12.50398065 21.47949219 12.53540039 C18.12568732 12.58123501 14.77227407 12.63919964 11.41870117 12.69946289 C10.38301498 12.7110141 9.3473288 12.72256531 8.28025818 12.73446655 C2.82294277 12.84505959 -1.82128598 13.30939096 -6.98364258 15.11352539 C-6.98364258 16.76352539 -6.98364258 18.41352539 -6.98364258 20.11352539 C-2.37951854 21.86144532 1.95842294 22.53844162 6.83666992 22.85961914 C8.35751167 22.97604568 9.87834473 23.09258585 11.39916992 23.20922852 C13.76158204 23.38121329 16.12418603 23.54982261 18.48706055 23.71533203 C44.97815009 25.60318361 44.97815009 25.60318361 52.01635742 32.11352539 C55.36497505 36.9363772 56.75635074 41.19357881 56.01635742 47.11352539 C54.82048975 52.68712293 52.84180364 55.89429297 48.12573242 59.10571289 C42.8839782 61.61010658 37.82966154 62.36234696 32.07128906 62.34057617 C31.41677765 62.34086823 30.76226624 62.34116028 30.08792114 62.34146118 C27.95064466 62.34008133 25.81372832 62.32458475 23.67651367 62.30883789 C22.18436371 62.30510296 20.69221128 62.30225825 19.20005798 62.30026245 C15.29231879 62.29266378 11.3847307 62.27304813 7.47705078 62.25085449 C3.48171024 62.23031446 -0.51365496 62.22124337 -4.5090332 62.21118164 C-12.33397152 62.18979828 -20.15878579 62.15570842 -27.98364258 62.11352539 C-26.65030924 58.11352539 -25.31697591 54.11352539 -23.98364258 50.11352539 C-23.28286591 50.10543854 -22.58208923 50.09735168 -21.8600769 50.08901978 C-15.23952949 50.01091487 -8.61917479 49.92357686 -1.9988842 49.82599831 C1.40426726 49.77616037 4.80738955 49.72982995 8.21069336 49.69165039 C12.12786005 49.64754964 16.04471874 49.58795009 19.96166992 49.52758789 C21.17750763 49.51603668 22.39334534 49.50448547 23.64602661 49.49258423 C24.78675629 49.47271454 25.92748596 49.45284485 27.1027832 49.43237305 C28.10205841 49.41904938 29.10133362 49.40572571 30.13088989 49.39199829 C33.35834711 49.08052039 36.01994637 48.34493325 39.01635742 47.11352539 C40.08390576 45.17951622 40.08390576 45.17951622 40.01635742 43.11352539 C39.12609437 40.75344032 39.12609437 40.75344032 35.95532227 40.03735352 C32.00963457 39.00993132 28.05113966 38.61599932 23.99291992 38.33227539 C23.24730804 38.2732605 22.50169617 38.21424561 21.73348999 38.15344238 C19.36991214 37.96668231 17.00579474 37.78904497 14.64135742 37.61352539 C-12.27938171 35.60608326 -12.27938171 35.60608326 -19.98364258 29.11352539 C-23.61535343 24.23341394 -23.79432884 18.98401214 -22.98364258 13.11352539 C-21.30624942 7.64881056 -17.8599394 4.92792229 -13.08129883 2.05883789 C-8.82566345 0.14102828 -4.6150987 -0.00988244 0 0 Z " fill="#F24E00" transform="translate(352.983642578125,9.886474609375)"/>
<path d="M0 0 C7.81040149 -0.07633893 15.62070601 -0.12872116 23.43139648 -0.16479492 C26.08619776 -0.1781397 28.74050853 -0.20028011 31.39526367 -0.22631836 C35.22060252 -0.26288673 39.04561142 -0.27976928 42.87109375 -0.29296875 C44.04957382 -0.30845261 45.22805389 -0.32393646 46.44224548 -0.33988953 C54.52954959 -0.34152501 61.83781801 0.33224817 68.4375 5.375 C73.01699044 10.06618533 73.34199105 14.58512772 73.3125 20.9375 C73.32861328 21.62779297 73.34472656 22.31808594 73.36132812 23.02929688 C73.36582662 27.77520578 72.47652674 30.96816661 70 35 C64.96875312 40.03124688 58.85444372 42.13031648 51.86914062 42.34057617 C49.96477769 42.34010731 48.06036785 42.32352423 46.15625 42.29296875 C45.14655151 42.28872391 44.13685303 42.28447906 43.09655762 42.28010559 C39.89742443 42.26342214 36.69894017 42.22578903 33.5 42.1875 C31.32032165 42.17243982 29.14063335 42.15875375 26.9609375 42.14648438 C21.64017881 42.11611475 16.32080878 42.05737294 11 42 C11 48.6 11 55.2 11 62 C6.05 62 1.1 62 -4 62 C-4 51.44 -4 40.88 -4 30 C-0.01550781 29.96261719 3.96898437 29.92523438 8.07421875 29.88671875 C11.93324271 29.84050777 15.79216951 29.78927236 19.65112305 29.73754883 C22.33306601 29.70264989 25.01493801 29.6750113 27.69702148 29.65356445 C31.55222433 29.62002854 35.40678475 29.56771073 39.26171875 29.51171875 C40.46084396 29.50532883 41.65996918 29.4989389 42.89543152 29.49235535 C44.01621597 29.47256119 45.13700043 29.45276703 46.29174805 29.43237305 C47.27547897 29.42126999 48.2592099 29.41016693 49.27275085 29.39872742 C52.50151227 28.92667825 54.38599834 27.93120131 57 26 C58.658596 23.19103937 58.658596 23.19103937 59 20 C57.82702922 17.1327381 56.85984968 15.54518906 54.23248291 13.87930298 C51.50787087 12.80616622 49.333179 12.72071864 46.40527344 12.68115234 C45.28441345 12.66128265 44.16355347 12.64141296 43.00872803 12.62094116 C41.20229828 12.60361435 41.20229828 12.60361435 39.359375 12.5859375 C37.50339691 12.55688828 37.50339691 12.55688828 35.60992432 12.5272522 C32.32861429 12.47762011 29.04733888 12.43633933 25.76586914 12.39910889 C22.41411724 12.35902344 19.06255655 12.30778775 15.7109375 12.2578125 C9.14073391 12.16175507 2.57045645 12.07670723 -4 12 C-2.66666667 8 -1.33333333 4 0 0 Z " fill="#F24E00" transform="translate(577,10)"/>
<path d="M0 0 C1.03769531 -0.01160156 2.07539062 -0.02320313 3.14453125 -0.03515625 C13.11752778 0.00210277 24.90352379 1.20055025 32.5 8.375 C36.03564804 13.39562022 38.63175641 18.4460636 38.61352539 24.6628418 C38.61341209 25.95384041 38.61341209 25.95384041 38.61329651 27.2709198 C38.60813522 28.19600845 38.60297394 29.12109711 38.59765625 30.07421875 C38.5962413 31.02440384 38.59482635 31.97458893 38.59336853 32.9535675 C38.58776875 35.98991029 38.57521632 39.02617948 38.5625 42.0625 C38.55748497 44.12044164 38.55292207 46.17838444 38.54882812 48.23632812 C38.5377994 53.28258046 38.52053493 58.32877775 38.5 63.375 C33.88 63.375 29.26 63.375 24.5 63.375 C24.470271 61.74872681 24.470271 61.74872681 24.43994141 60.08959961 C24.36351235 56.04331366 24.2748542 51.99736993 24.18261719 47.95141602 C24.14448087 46.20474027 24.10960198 44.45799009 24.078125 42.71118164 C24.03213913 40.19129954 23.97420253 37.6719231 23.9140625 35.15234375 C23.90251129 34.37914291 23.89096008 33.60594208 23.87905884 32.80931091 C23.67600278 24.47501595 23.67600278 24.47501595 19.6484375 17.51171875 C9.96966107 12.39076613 -4.07265682 13.22273348 -14.4375 15.609375 C-17.66101858 16.80598417 -19.45606698 18.67173374 -21.5 21.375 C-22.80920503 25.3026151 -22.73462868 29.10070631 -22.81640625 33.19921875 C-22.83718735 34.06061966 -22.85796844 34.92202057 -22.87937927 35.80952454 C-22.94474909 38.56043544 -23.00370132 41.31144156 -23.0625 44.0625 C-23.10569717 45.92774421 -23.14931185 47.7929788 -23.19335938 49.65820312 C-23.30041763 54.23037124 -23.40172054 58.8026351 -23.5 63.375 C-28.12 63.375 -32.74 63.375 -37.5 63.375 C-37.5497499 57.84319339 -37.58588418 52.31151948 -37.60986328 46.77954102 C-37.61986873 44.90093718 -37.63347733 43.02234871 -37.65087891 41.14379883 C-37.6753688 38.43046252 -37.6865379 35.71733362 -37.6953125 33.00390625 C-37.70563507 32.17540665 -37.71595764 31.34690704 -37.72659302 30.49330139 C-37.72812976 22.35343886 -36.89338517 14.78875534 -31.5 8.375 C-23.24643154 0.26014698 -10.93393472 -0.12224275 0 0 Z " fill="#18141D" transform="translate(37.5,8.625)"/>
<path d="M0 0 C24.09 0 48.18 0 73 0 C72 6 72 6 69 13 C59.43 13 49.86 13 40 13 C40 29.17 40 45.34 40 62 C35.05 62 30.1 62 25 62 C25 45.83 25 29.66 25 13 C15.1 13 5.2 13 -5 13 C-2 4 -2 4 0 0 Z " fill="#18141D" transform="translate(252,10)"/>
<path d="M0 0 C1.27685165 0.00222061 2.55370331 0.00444122 3.86924744 0.00672913 C4.57165054 0.0065831 5.27405365 0.00643707 5.9977417 0.00628662 C8.32985983 0.00698579 10.66189904 0.01477835 12.9940033 0.02259827 C14.60683142 0.02446243 16.21966012 0.02588634 17.83248901 0.02688599 C22.08550062 0.03071129 26.33847828 0.04054167 30.59147644 0.05158997 C34.92812135 0.06180383 39.26477171 0.06638355 43.60142517 0.07142639 C52.11641474 0.08216393 60.63137667 0.09924049 69.14634705 0.12025452 C68.66775463 1.7245926 68.18845147 3.32871867 67.70884705 4.93275452 C67.44201111 5.82607483 67.17517517 6.71939514 66.9002533 7.63978577 C66.34246831 9.47498506 65.75290129 11.30059178 65.14634705 13.12025452 C55.24634705 13.12025452 45.34634705 13.12025452 35.14634705 13.12025452 C35.14634705 29.29025452 35.14634705 45.46025452 35.14634705 62.12025452 C30.52634705 62.12025452 25.90634705 62.12025452 21.14634705 62.12025452 C21.14634705 45.95025452 21.14634705 29.78025452 21.14634705 13.12025452 C11.24634705 13.12025452 1.34634705 13.12025452 -8.85365295 13.12025452 C-3.44741184 0.14527585 -3.44741184 0.14527585 0 0 Z " fill="#F24E00" transform="translate(418.85365295410156,9.879745483398438)"/>
<path d="M0 0 C1.68048833 0.97659447 3.35129066 1.97066269 5 3 C1.52233414 4.21518439 -0.3965444 3.74803417 -3.8125 2.5 C-8.26695882 1.07641007 -11.40652956 0.62195887 -16 2 C-18.58333333 3.41666667 -18.58333333 3.41666667 -20 6 C-21.36877771 13.66515519 -18.09879962 19.63109598 -14 26 C-3.46755671 39.67192158 13.69589974 56.70679886 31.4765625 59.37109375 C35.20104024 59.57126926 37.34303574 59.40058796 40.5625 57.4375 C42.59041379 53.99886358 42.45488597 51.96400629 42 48 C41.14722032 44.9397392 40.13066758 41.9680024 39 39 C39.99 39 40.98 39 42 39 C43.7890625 41.484375 43.7890625 41.484375 45.625 44.75 C46.23601562 45.81734375 46.84703125 46.8846875 47.4765625 47.984375 C49.90452156 52.79048883 50.37945254 56.59280127 50 62 C48.60583432 65.60842882 47.36397828 66.77541766 44.0625 68.8125 C33.21196587 72.77055648 21.82389954 69.04756678 11.78125 64.5625 C-6.70403612 55.23012254 -23.38953703 40.06822691 -31 20.4375 C-32.65692919 14.47913874 -33.80903707 7.32794555 -30.7578125 1.71484375 C-22.90349339 -7.80021447 -9.9762376 -4.71231444 0 0 Z " fill="#F24E00" transform="translate(204,4)"/>
<path d="M0 0 C2.92837797 2.45027545 4.56680768 4.19920878 5.47265625 7.96484375 C5.76870317 11.91972697 5.12212999 14.33838332 2.625 17.4375 C-0.9048586 20.88331435 -2.9283652 21.39555836 -7.89453125 21.359375 C-11.61593453 20.72418186 -13.40312849 18.66020984 -16 16 C-17.61540873 12.76918255 -17.5896275 9.49240902 -17 6 C-13.0669965 -1.09155458 -7.3553943 -2.06105619 0 0 Z " fill="#18141D" transform="translate(188,53)"/>
<path d="M0 0 C2.61088217 1.92380792 3.72446592 3.32034926 4.9375 6.3125 C5.02629096 10.13051118 3.76693051 12.65545296 2 16 C-1.7373856 18.4915904 -3.57331583 18.45793285 -8 18 C-10.75329021 16.20437595 -12.52627461 14.94745078 -14 12 C-14.39069343 7.85864965 -14.43382227 5.68813188 -12.1875 2.125 C-8.26403475 -1.68636625 -5.10164568 -1.16353322 0 0 Z " fill="#18141D" transform="translate(215,27)"/>
<path d="M0 0 C2.0625 1.5625 2.0625 1.5625 3 4 C2.67272727 10.32727273 2.67272727 10.32727273 0 13 C-6.96019496 13.55239643 -6.96019496 13.55239643 -10 11.9375 C-11.58433618 8.86784865 -11.36248449 6.38318857 -11 3 C-8.85023976 -1.16516046 -4.12934638 -0.75547293 0 0 Z " fill="#18141D" transform="translate(229,12)"/>
<path d="M0 0 C3 0.25 3 0.25 5 2.25 C5.3125 5.25 5.3125 5.25 5 8.25 C2 10.25 2 10.25 -1.125 9.9375 C-4 9.25 -4 9.25 -5 8.25 C-5.1875 5.3125 -5.1875 5.3125 -5 2.25 C-3 0.25 -3 0.25 0 0 Z " fill="#18141D" transform="translate(236,0.75)"/>
</svg>
