<?xml version="1.0" encoding="UTF-8"?>
<svg version="1.1" xmlns="http://www.w3.org/2000/svg" width="2708" height="467">
<path d="M0 0 C1.43261096 -0.00128164 1.43261096 -0.00128164 2.89416355 -0.00258917 C6.07236043 -0.00422722 9.25050372 0.00124983 12.42869568 0.00672913 C14.7157084 0.00701139 17.00272122 0.00685251 19.28973389 0.00628662 C25.48322625 0.00600016 31.67669919 0.01187249 37.87018704 0.01886058 C44.34842406 0.02511925 50.82666155 0.02569991 57.30490112 0.02688599 C68.17331793 0.02963919 79.04172757 0.03588195 89.91014099 0.04481506 C101.10122136 0.05400378 112.2922998 0.06107747 123.48338318 0.06532288 C124.17400164 0.0655856 124.8646201 0.06584832 125.5761664 0.06611901 C129.04103521 0.06742411 132.50590403 0.0686878 135.97077286 0.06993091 C164.6838841 0.08028597 193.39698785 0.09796362 222.11009216 0.12025452 C221.64061976 2.01889394 221.16972456 3.91718158 220.69824219 5.81532288 C220.43616754 6.87246994 220.17409288 7.929617 219.90407658 9.01879883 C218.8131668 13.28010205 217.5615169 17.48108741 216.26243591 21.68275452 C216.00507156 22.5219342 215.74770721 23.36111389 215.48254395 24.22572327 C214.94548469 25.97376214 214.40685847 27.72132033 213.86668396 29.46839905 C213.0411215 32.14120367 212.22280014 34.81615542 211.40501404 37.49134827 C210.87875092 39.20111597 210.35207334 40.91075617 209.82493591 42.62025452 C209.5821843 43.41504211 209.33943268 44.20982971 209.08932495 45.02870178 C208.85891006 45.77047668 208.62849518 46.51225159 208.39109802 47.27650452 C208.19140915 47.92425842 207.99172028 48.57201233 207.78598022 49.23939514 C207.01934831 51.37277624 206.32663074 53.19621566 205.11009216 55.12025452 C203.25724983 55.71974182 203.25724983 55.71974182 200.92726135 55.85267639 C200.02477787 55.90802551 199.12229439 55.96337463 198.19246292 56.020401 C192.13985146 56.21647557 186.09082699 56.34264869 180.03538513 56.40150452 C178.53591962 56.41934635 177.0364588 56.43758681 175.53700256 56.45619202 C172.32328973 56.49525661 169.10956209 56.53160435 165.89579391 56.56581116 C160.78879205 56.62026187 155.68188184 56.6813341 150.57496643 56.74330139 C140.63152038 56.86308314 130.68800708 56.97650983 120.74447632 57.08900452 C108.1398225 57.2317521 95.5351977 57.37660729 82.93065369 57.52877045 C78.69796614 57.57967917 74.46527286 57.62906713 70.23252487 57.67469788 C47.86207463 57.90876658 47.86207463 57.90876658 25.50120544 58.57728577 C24.58160978 58.61305725 23.66201412 58.64882874 22.71455193 58.6856842 C4.59523355 59.50060727 -13.10336645 62.75723615 -29.2346344 71.35292053 C-30.88990784 72.12025452 -30.88990784 72.12025452 -32.88990784 72.12025452 C-33.00777649 72.83141418 -33.12564514 73.54257385 -33.24708557 74.27528381 C-33.92498431 77.27549423 -34.93387976 79.82748203 -36.17506409 82.63978577 C-36.62301331 83.6613678 -37.07096252 84.68294983 -37.53248596 85.73548889 C-38.00106018 86.79058655 -38.4696344 87.8456842 -38.95240784 88.93275452 C-39.42484924 90.00718811 -39.89729065 91.0816217 -40.38404846 92.18861389 C-41.54823319 94.83448828 -42.71698616 97.47824446 -43.88990784 100.12025452 C-43.18996201 100.12931289 -42.49001617 100.13837126 -41.76885986 100.14770412 C8.938941 100.80651704 59.6429624 101.63429124 110.34711456 102.52842748 C120.2855446 102.70363102 130.22400169 102.87727841 140.16246033 103.05085099 C160.47836623 103.40569499 180.79424056 103.76231601 201.11009216 104.12025452 C199.37693594 118.2228909 195.37604643 131.11856382 189.92259216 144.24525452 C189.48245789 145.30679749 189.04232361 146.36834045 188.58885193 147.46205139 C185.37576764 154.98741678 185.37576764 154.98741678 183.11009216 156.12025452 C180.15102475 156.26505105 177.2128436 156.3496709 174.25178528 156.3923645 C173.32311004 156.40955314 172.39443481 156.42674177 171.4376179 156.44445127 C168.30685853 156.50121559 165.17602635 156.55105692 162.04515076 156.60096741 C159.8084237 156.64010914 157.57170404 156.67967494 155.33499146 156.71963501 C149.24652972 156.82719843 143.15798109 156.92879791 137.06940031 157.02936482 C130.71251285 157.13536538 124.35572072 157.24679795 117.99891663 157.35766602 C107.32411216 157.54310667 96.64925552 157.72517639 85.97434998 157.90467834 C74.97789129 158.08959652 63.98147002 158.27653536 52.98509216 158.46620178 C51.96880834 158.48372967 51.96880834 158.48372967 50.93199353 158.50161166 C47.53315005 158.56024415 44.13430726 158.61891648 40.73546481 158.67760861 C12.52711143 159.16466653 -15.68135895 159.64466438 -43.88990784 160.12025452 C-42.93959286 163.0118305 -41.98601353 165.90226059 -41.03053284 168.79212952 C-40.7632135 169.60665588 -40.49589417 170.42118225 -40.22047424 171.26039124 C-37.1067981 180.65855134 -34.69295357 187.01579041 -25.60475159 191.84681702 C-7.58157223 200.3008551 12.19705723 201.17639539 31.80809021 201.64930725 C33.44905718 201.69117812 35.0900239 201.7330583 36.73099041 201.77494717 C53.94269077 202.20252557 71.15664187 202.42756942 88.37225175 202.62550664 C92.7856782 202.67686316 97.19906487 202.73145412 101.61245728 202.78564453 C109.90207771 202.88696745 118.1917282 202.98554647 126.48139447 203.08303875 C135.94763746 203.19450959 145.41384078 203.30919304 154.88004267 203.42409337 C174.29001826 203.65962152 193.70003812 203.89128746 213.11009216 204.12025452 C212.14001736 213.61044593 212.14001736 213.61044593 211.14207458 217.71864319 C210.86124275 218.88981941 210.86124275 218.88981941 210.57473755 220.08465576 C210.37370926 220.89433304 210.17268097 221.70401031 209.96556091 222.53822327 C209.6489727 223.82953911 209.6489727 223.82953911 209.32598877 225.14694214 C208.88103873 226.95187636 208.43297496 228.75604563 207.98191833 230.5594635 C207.2975673 233.30785438 206.63221488 236.06041371 205.96751404 238.81361389 C205.53051595 240.57626992 205.09240293 242.33865 204.65306091 244.10072327 C204.45810532 244.91647324 204.26314972 245.73222321 204.06228638 246.57269287 C202.72356994 251.82285089 201.02868745 256.20165923 197.11009216 260.12025452 C195.77447644 260.27507045 194.4309995 260.36265035 193.08779907 260.42306519 C192.20428678 260.46302203 191.32077448 260.50297888 190.41048908 260.54414654 C189.41827949 260.5819111 188.42606989 260.61967566 187.40379333 260.65858459 C186.3455923 260.70026418 185.28739126 260.74194376 184.19712353 260.78488636 C168.82102535 261.33458045 153.43406533 261.38836515 138.04990029 261.48944068 C135.38016563 261.50717728 132.71044086 261.52601539 130.04071617 261.54519081 C120.67967153 261.61226415 111.31860802 261.67458809 101.95750427 261.73280334 C93.3038588 261.78676127 84.65034537 261.85193589 75.99681789 261.92214173 C68.49802277 261.98242654 60.99919801 262.03434228 53.50030011 262.08006889 C49.05153714 262.10735461 44.60285946 262.13786137 40.15418434 262.17708397 C1.59051859 262.51045223 -48.85585973 262.33662211 -79.88990784 235.12025452 C-104.6944157 209.52968831 -111.9051545 172.48814586 -112.88990784 138.12025452 C-112.93115784 136.93947327 -112.97240784 135.75869202 -113.01490784 134.54212952 C-113.63582459 99.92602041 -107.99669541 56.46530202 -82.88990784 30.12025452 C-78.45546474 26.38508898 -73.80658049 23.18354779 -68.88990784 20.12025452 C-68.24956604 19.72032288 -67.60922424 19.32039124 -66.94947815 18.90834045 C-46.53001634 6.3715038 -23.98321881 -0.079704 0 0 Z " fill="#FFFFFF" transform="translate(461.88990783691406,40.87974548339844)"/>
<path d="M0 0 C2.41582739 0.00056497 4.83165511 0.00024588 7.2474823 -0.00088501 C13.09435002 -0.00139707 18.94115142 0.00722005 24.78800403 0.01999031 C31.59902842 0.03436425 38.41004378 0.03728729 45.22108121 0.03956665 C57.36468654 0.04393009 69.50826481 0.05720229 81.65185547 0.07617188 C93.439289 0.09456581 105.22671515 0.10870506 117.01416016 0.1171875 C118.10636384 0.11797567 118.10636384 0.11797567 119.22063224 0.11877976 C122.87394077 0.12139008 126.52724935 0.12391744 130.18055797 0.12640357 C160.42719473 0.14709395 190.67379866 0.18243241 220.92041016 0.22705078 C220.61393664 1.80552092 220.3048685 3.38348741 219.99473572 4.96124268 C219.73699324 6.27941923 219.73699324 6.27941923 219.47404385 7.62422562 C218.67659173 11.3733263 217.5841845 14.99858701 216.42431641 18.64892578 C216.19010483 19.39740784 215.95589325 20.14588989 215.71458435 20.91705322 C215.22381091 22.48066052 214.7304704 24.04346431 214.23461914 25.60546875 C213.48087159 27.9834823 212.73823643 30.36477277 211.99658203 32.74658203 C211.51481864 34.27673742 211.03241889 35.80669264 210.54931641 37.33642578 C210.221036 38.39129181 210.221036 38.39129181 209.88612366 39.46746826 C208.56253612 43.60779514 206.89952357 47.36464489 204.92041016 51.22705078 C188.81467098 52.18589543 172.72296525 52.50280362 156.59228516 52.72705078 C153.86931159 52.76727156 151.14635641 52.80867616 148.42340088 52.85009766 C141.28440719 52.95806166 134.14535703 53.06180302 127.00628662 53.16455078 C82.11132184 53.775491 82.11132184 53.775491 37.22121429 54.65301514 C35.5839544 54.69103055 33.94666114 54.72764391 32.3093338 54.76263428 C11.52028725 55.21460465 -8.29960993 57.63372414 -28.07958984 64.22705078 C-28.40958984 70.82705078 -28.73958984 77.42705078 -29.07958984 84.22705078 C-26.29649992 84.92282326 -23.51301614 85.61704335 -20.72802734 86.30517578 C-18.31024609 86.91609267 -15.89845935 87.55128268 -13.49365234 88.21142578 C-6.06369373 90.20296108 1.30245668 91.70618101 8.92773438 92.7331543 C9.87973158 92.86161271 10.83172878 92.99007113 11.81257439 93.12242222 C21.89663205 94.42996168 32.00545186 95.2060773 42.14728165 95.90354729 C45.5451508 96.13744341 48.94225504 96.38065176 52.33932495 96.62586975 C60.78090038 97.23342412 69.22351266 97.82600516 77.6661377 98.41876221 C128.65016573 102.00251099 128.65016573 102.00251099 149.68603516 104.35595703 C150.40927097 104.43624586 151.13250679 104.51653469 151.87765884 104.59925652 C176.72075395 107.39235668 194.49004977 112.69497686 212.92041016 130.22705078 C213.75958984 131.01724609 214.59876953 131.80744141 215.46337891 132.62158203 C222.66352604 140.25671421 227.5210161 150.38941041 230.92041016 160.22705078 C231.39994141 161.61150391 231.39994141 161.61150391 231.88916016 163.02392578 C236.26602578 178.34295547 235.73076028 196.43359355 229.92041016 211.22705078 C229.56978516 212.24541016 229.21916016 213.26376953 228.85791016 214.31298828 C223.48050646 228.83944688 211.98343799 242.37699529 197.92041016 249.22705078 C172.63621126 260.25280875 146.42220627 261.56196529 119.18603516 261.38330078 C116.63112666 261.37428868 114.07621499 261.36614843 111.52130127 261.35876465 C105.68057646 261.34012003 99.83993322 261.31284547 93.99926758 261.28076172 C86.83082766 261.24138446 79.66238135 261.20736227 72.49389648 261.17724609 C71.5026016 261.17307521 70.51130672 261.16890432 69.48997259 261.16460705 C67.44012262 261.15599078 65.39027263 261.1473782 63.34042263 261.13876915 C38.919196 261.03537265 14.49809285 260.91038548 -9.9230113 260.78167057 C-21.6410972 260.71995845 -33.35919227 260.66007542 -45.07728815 260.60029316 C-69.07806554 260.47780995 -93.07883142 260.35319234 -117.07958984 260.22705078 C-116.53005728 256.22399282 -115.98509668 252.44255963 -114.69677734 248.60864258 C-114.28129639 247.35781136 -114.28129639 247.35781136 -113.85742188 246.08171082 C-113.5594873 245.20541519 -113.26155273 244.32911957 -112.95458984 243.42626953 C-112.64763184 242.50868362 -112.34067383 241.59109772 -112.02441406 240.64570618 C-111.37828546 238.71769843 -110.72930833 236.79064321 -110.07763672 234.86450195 C-109.07755566 231.9085383 -108.08562449 228.94993921 -107.09521484 225.99072266 C-106.46547342 224.1149148 -105.83528097 222.23925829 -105.20458984 220.36376953 C-104.90665527 219.47735275 -104.6087207 218.59093597 -104.30175781 217.67765808 C-103.88627686 216.45046806 -103.88627686 216.45046806 -103.46240234 215.19848633 C-103.21893066 214.4779155 -102.97545898 213.75734467 -102.72460938 213.01493835 C-102.07958984 211.22705078 -102.07958984 211.22705078 -101.07958984 209.22705078 C-98.43523979 208.82498741 -98.43523979 208.82498741 -94.82296753 208.62338257 C-94.1576885 208.58609303 -93.49240947 208.54880349 -92.80697048 208.51038396 C-83.60741754 208.03914157 -74.39486113 207.98110287 -65.18554688 207.88574219 C-63.12226912 207.86129486 -61.05899607 207.83644719 -58.99572754 207.81123352 C-54.58107746 207.75787629 -50.16640909 207.70681166 -45.7517128 207.65742874 C-38.7559344 207.57864465 -31.76027534 207.49148951 -24.76461792 207.40267944 C-4.88128608 207.15119518 15.00208883 206.90496801 34.88574219 206.68017578 C45.88929508 206.5557077 56.89267884 206.42124407 67.89597428 206.2757448 C73.70390798 206.19937764 79.5118025 206.12809256 85.31994247 206.06926346 C90.78511799 206.01389036 96.24997796 205.94539777 101.71487427 205.86728477 C103.70725918 205.8410893 105.69971246 205.8195587 107.69220352 205.80333519 C123.1117079 205.67375191 137.96625943 204.29814829 152.73291016 199.53955078 C153.48121094 199.33394531 154.22951172 199.12833984 155.00048828 198.91650391 C159.23627618 197.55999378 161.30711072 196.27294808 163.40087891 192.27001953 C165.83789748 186.70171154 165.72917908 181.68067627 163.73291016 175.97705078 C161.63941077 172.29364292 159.3920672 171.28224231 155.42041016 169.97705078 C152.92188969 169.35035007 150.43568178 168.77300591 147.92041016 168.22705078 C146.50499501 167.88741768 145.08963252 167.54756508 143.67431641 167.20751953 C134.32028099 165.07088318 124.92457848 163.78330758 115.38134766 162.85205078 C114.11552353 162.72708725 112.8496994 162.60212372 111.54551697 162.47337341 C99.03931887 161.26341612 86.51356782 160.29358236 73.98681641 159.32470703 C72.92054834 159.24219633 71.85428028 159.15968563 70.75570107 159.07467461 C60.7587243 158.30241963 50.76126887 157.53652874 40.76293945 156.78198242 C-51.44928419 149.81055948 -51.44928419 149.81055948 -79.07958984 127.22705078 C-80.10955078 126.43556641 -81.13951172 125.64408203 -82.20068359 124.82861328 C-91.85636815 116.10312357 -96.26107361 101.73433795 -98.07958984 89.22705078 C-98.29478432 84.64539767 -98.26470614 80.06329587 -98.26708984 75.47705078 C-98.27933594 74.25244141 -98.29158203 73.02783203 -98.30419922 71.76611328 C-98.32070902 61.48601172 -97.34520055 52.57038262 -92.64208984 43.35205078 C-92.29428467 42.66933105 -91.94647949 41.98661133 -91.58813477 41.28320312 C-85.15481611 29.27078239 -75.07653944 20.94978297 -64.07958984 13.22705078 C-63.25974609 12.64052734 -62.43990234 12.05400391 -61.59521484 11.44970703 C-43.37278887 -0.56608728 -20.92895015 -0.06884033 0 0 Z " fill="#F24E00" transform="translate(1471.07958984375,40.77294921875)"/>
<path d="M0 0 C1.59075238 -0.00259449 1.59075238 -0.00259449 3.21364117 -0.00524139 C6.7246375 -0.00957941 10.2355851 -0.00665375 13.74658203 -0.00341797 C16.26016759 -0.00443517 18.77375303 -0.00577553 21.28733826 -0.00741577 C27.34576699 -0.00983873 33.40417175 -0.00699635 39.46259648 -0.00117052 C44.35717537 0.00349564 49.2517509 0.00587847 54.14633179 0.00708008 C107.7277477 0.02276755 161.30220031 0.44985731 214.87939453 1.12939453 C213.11741506 8.38093569 211.23606298 15.56236324 209.03173828 22.69189453 C208.77437393 23.53107422 208.51700958 24.37025391 208.25184631 25.23486328 C207.71478705 26.98290215 207.17616084 28.73046035 206.63598633 30.47753906 C205.81042386 33.15034368 204.99210251 35.82529543 204.17431641 38.50048828 C203.64805328 40.21025598 203.1213757 41.91989618 202.59423828 43.62939453 C202.35148666 44.42418213 202.10873505 45.21896973 201.85862732 46.0378418 C201.62821243 46.7796167 201.39779755 47.5213916 201.16040039 48.28564453 C200.96071152 48.93339844 200.76102264 49.58115234 200.55528259 50.24853516 C199.7886388 52.38194933 199.09599891 54.20534943 197.87939453 56.12939453 C196.0259943 56.72888184 196.0259943 56.72888184 193.6955719 56.86181641 C192.34185328 56.94484009 192.34185328 56.94484009 190.96078682 57.02954102 C184.91378888 57.22549594 178.87038459 57.3517768 172.82055664 57.41064453 C171.32271364 57.42848658 169.82487534 57.44672704 168.32704163 57.46533203 C165.11660502 57.50439779 161.90615358 57.54074556 158.69566154 57.57495117 C153.59258573 57.62941136 148.48960144 57.6904819 143.38661194 57.75244141 C133.44912453 57.87222755 123.5115696 57.98563864 113.5739975 58.09814453 C100.9806335 58.24088226 88.38729964 58.38584171 75.79404455 58.53791046 C71.5652373 58.58878799 67.33642426 58.63816922 63.1075573 58.68383789 C40.43939291 58.92810156 40.43939291 58.92810156 17.7800293 59.58251953 C16.8152941 59.61776733 15.85055891 59.65301514 14.85658932 59.68933105 C-3.15722379 60.45623248 -20.28280402 63.5108259 -36.26513672 72.21142578 C-38.12060547 73.12939453 -38.12060547 73.12939453 -40.12060547 73.12939453 C-40.45060547 75.10939453 -40.78060547 77.08939453 -41.12060547 79.12939453 C-44.42060547 87.70939453 -47.72060547 96.28939453 -51.12060547 105.12939453 C31.04939453 105.12939453 113.21939453 105.12939453 197.87939453 105.12939453 C197.1743779 108.6544777 196.5766537 111.17920174 195.23706055 114.38134766 C194.90323868 115.18568237 194.56941681 115.99001709 194.22547913 116.81872559 C193.68485085 118.10172546 193.68485085 118.10172546 193.13330078 119.41064453 C192.76212631 120.30174927 192.39095184 121.192854 192.00852966 122.11096191 C190.82395599 124.95225924 189.63307713 127.79086245 188.44189453 130.62939453 C187.64393924 132.53937151 186.84640852 134.44952592 186.04931641 136.35986328 C184.92516032 139.05390987 183.80039566 141.74768223 182.67225647 144.44006348 C182.33528244 145.24439819 181.99830841 146.04873291 181.65112305 146.87744141 C181.3565773 147.57961792 181.06203156 148.28179443 180.75856018 149.00524902 C179.77903782 151.37186563 178.83064331 153.75127259 177.87939453 156.12939453 C102.30939453 156.45939453 26.73939453 156.78939453 -51.12060547 157.12939453 C-47.53313317 174.89168257 -47.53313317 174.89168257 -37.83154297 190.18017578 C-18.33482226 200.71101322 2.34505057 202.14996388 24.08496094 202.65844727 C25.7734568 202.70029254 27.46195178 202.74217325 29.15044594 202.78408718 C46.4454214 203.20242968 63.74237547 203.43408691 81.04101896 203.63464665 C85.42374257 203.68605718 89.80642719 203.74061695 94.18911743 203.79478455 C102.41849792 203.89604609 110.64790789 203.99464227 118.87733328 204.09217876 C128.27588557 204.20370941 137.674399 204.31836687 147.07291102 204.43323338 C166.34169878 204.66866491 185.61052992 204.90034396 204.87939453 205.12939453 C205.6982023 208.84255864 205.86820701 211.33735748 204.99902344 215.05566406 C204.67340927 216.48206711 204.67340927 216.48206711 204.34121704 217.93728638 C204.09858124 218.95201019 203.85594543 219.96673401 203.60595703 221.01220703 C203.24115738 222.58903763 203.24115738 222.58903763 202.86898804 224.19772339 C202.09031491 227.55224957 201.29737187 230.90322424 200.50439453 234.25439453 C199.97745015 236.51850754 199.45139804 238.78282842 198.92626953 241.04736328 C197.96227337 245.18679025 196.99663915 249.32579104 196.01855469 253.46191406 C195.82234528 254.29288605 195.62613586 255.12385803 195.42398071 255.98001099 C194.98384776 257.71713646 194.4460798 259.42933873 193.87939453 261.12939453 C143.47139388 261.71008723 93.06088095 262.24165876 42.64938354 262.36157227 C38.50554388 262.37181065 34.36183199 262.38911177 30.2180481 262.4128418 C-12.49803944 262.64763208 -58.03212864 261.56902793 -90.61328125 229.70751953 C-94.80451862 225.31941484 -98.10208148 220.382033 -101.12060547 215.12939453 C-101.47348633 214.51580078 -101.82636719 213.90220703 -102.18994141 213.27001953 C-123.22499843 175.80667815 -124.19937471 117.99716864 -113.30810547 77.18408203 C-108.5759594 60.58160334 -101.41404962 46.28971414 -90.12060547 33.12939453 C-89.59208984 32.44490234 -89.06357422 31.76041016 -88.51904297 31.05517578 C-73.02323269 11.6281624 -45.72306503 4.17742637 -22.12060547 1.12939453 C-14.73173966 0.30470679 -7.4311959 -0.01551364 0 0 Z " fill="#F24E00" transform="translate(2148.12060546875,39.87060546875)"/>
<path d="M0 0 C5.22199195 -0.01029116 10.44388421 -0.02764943 15.66583252 -0.05126953 C21.87988395 -0.07885423 28.09378864 -0.09098732 34.30789948 -0.09189606 C36.58452789 -0.09453621 38.86115763 -0.10213945 41.13774872 -0.11544037 C71.46244583 -0.28251642 107.13648489 2.36112797 130.5630188 24.23217773 C131.23462036 24.85092773 131.90622192 25.46967773 132.59817505 26.10717773 C141.78793835 35.45630109 148.7437701 49.69967434 148.86941528 62.86328125 C148.88540268 64.13893448 148.90139008 65.41458771 148.91786194 66.72889709 C148.92424295 68.1062886 148.92963433 69.48368498 148.93411255 70.86108398 C148.94309897 72.29727765 148.95222112 73.73347048 148.96147156 75.16966248 C148.97791291 78.17628234 148.98565191 81.18279156 148.98855591 84.18945312 C148.993914 88.00310287 149.03150619 91.81568044 149.07730007 95.62902927 C149.10736401 98.59687378 149.11428584 101.56447016 149.11528206 104.53245354 C149.11943184 105.93601289 149.13164945 107.33957674 149.15279961 108.74298286 C149.35375097 123.23818601 145.15488688 139.59753052 135.23538208 150.72094727 C115.39582649 170.60059626 86.43938957 179.16943441 58.99856567 179.34521484 C55.92623425 179.34732542 52.85406637 179.33546428 49.7817688 179.32202148 C48.04686539 179.3179448 46.31196136 179.31412406 44.57705688 179.31053162 C38.57231753 179.29491131 32.56768637 179.26494825 26.5630188 179.23217773 C25.43563293 179.22604713 24.30824707 179.21991653 23.146698 179.21360016 C7.15289457 179.12431906 -8.84064645 179.00754652 -24.83415699 178.87635481 C-25.49779601 178.87091261 -26.16143503 178.8654704 -26.84518433 178.85986328 C-27.50982287 178.85441006 -28.17446142 178.84895684 -28.85924053 178.84333837 C-34.30955135 178.79897765 -39.75988923 178.75916031 -45.21024084 178.72018582 C-51.21174201 178.67701253 -57.21319468 178.62898329 -63.21464539 178.57923698 C-65.72455237 178.55907597 -68.23447115 178.54032487 -70.74440002 178.52310371 C-74.24288611 178.49871697 -77.74128485 178.4687428 -81.23971558 178.4375 C-82.24143799 178.43174454 -83.2431604 178.42598907 -84.27523804 178.4200592 C-92.71642031 178.33521443 -100.97145249 177.76127328 -109.4369812 177.23217773 C-109.4369812 204.95217773 -109.4369812 232.67217773 -109.4369812 261.23217773 C-130.2269812 261.23217773 -151.0169812 261.23217773 -172.4369812 261.23217773 C-172.4369812 216.68217773 -172.4369812 172.13217773 -172.4369812 126.23217773 C-161.45030151 126.0994043 -150.46362183 125.96663086 -139.14401245 125.82983398 C-132.03919298 125.74338687 -124.93437443 125.65687246 -117.82955933 125.57006836 C-106.63726679 125.43333675 -95.44497178 125.29684611 -84.25265503 125.16210938 C-81.53305803 125.12932461 -78.81346125 125.0965213 -76.09386468 125.06370091 C-74.28747655 125.0419045 -72.48108817 125.02012877 -70.67469954 124.99837375 C-60.82594827 124.87960863 -50.9772577 124.7574605 -41.12866211 124.62637329 C-38.48919608 124.59133848 -35.84973004 124.55630455 -33.21026397 124.52127337 C-31.47553396 124.49821542 -29.74080497 124.47507996 -28.00607705 124.45186543 C-17.49577524 124.31181695 -6.98576189 124.19712385 3.52517605 124.11815357 C8.51256402 124.08019393 13.49979501 124.02954735 18.48702341 123.97467774 C21.73110206 123.93973799 24.97485723 123.91356266 28.21910667 123.90049934 C48.18632182 123.81724688 64.07882788 122.56049419 80.5005188 109.98217773 C86.02578836 102.61515165 89.59124044 93.48617255 88.5630188 84.23217773 C84.29310684 73.57172639 78.88251444 65.62319709 68.5630188 60.23217773 C58.65669061 56.59656938 48.59519684 56.08627121 38.15505981 55.95092773 C37.03109078 55.93286103 35.90712175 55.91479433 34.74909306 55.89618015 C31.02175514 55.83733177 27.2943567 55.78472492 23.56692505 55.73217773 C20.92778902 55.69184863 18.28866022 55.65118209 15.64953613 55.61009216 C10.04667134 55.52354451 4.44376646 55.44020308 -1.15917969 55.35910034 C-9.15234054 55.24339656 -17.14541286 55.12229461 -25.13847673 55.00009763 C-50.53188596 54.61238946 -75.92553489 54.24363251 -101.3197937 53.91577148 C-103.03844722 53.89337357 -104.75710059 53.87096377 -106.47575378 53.84854126 C-113.29304623 53.76001223 -120.11032809 53.67313944 -126.92777348 53.59718895 C-142.11769285 53.42599107 -157.26746375 53.05265745 -172.4369812 52.23217773 C-171.09282351 45.69887911 -169.32083482 39.47870464 -167.1791687 33.16577148 C-166.87125397 32.24627213 -166.56333923 31.32677277 -166.24609375 30.37940979 C-165.27231413 27.4747153 -164.29226119 24.57218409 -163.3119812 21.66967773 C-162.64619894 19.68739609 -161.98083034 17.70497547 -161.31588745 15.72241211 C-159.69436152 10.89071459 -158.06721025 6.06094539 -156.4369812 1.23217773 C-104.29326998 0.57135412 -52.14794449 0.09934523 0 0 Z " fill="#F24E00" transform="translate(2559.436981201172,39.767822265625)"/>
<path d="M0 0 C1.04438232 0.00060425 2.08876465 0.0012085 3.16479492 0.00183105 C45.71596755 0.06837305 90.65172717 2.48256199 126.375 28.1875 C127.26832031 28.82816406 128.16164063 29.46882813 129.08203125 30.12890625 C137.39089892 36.81525488 142.33563407 45.96035085 147.375 55.1875 C147.91133057 56.16710693 147.91133057 56.16710693 148.45849609 57.16650391 C156.95434859 73.05697222 160.57265897 90.30684286 160.49023438 108.23266602 C160.4902092 109.08918951 160.49018402 109.94571301 160.49015808 110.82819176 C160.48833718 113.67846502 160.47877372 116.52865083 160.46875 119.37890625 C160.46493873 121.44112616 160.46132296 123.50334645 160.45788574 125.56556702 C160.40102693 151.38383081 160.16186715 177.20145145 159.92961884 203.01861441 C159.86131353 210.62111694 159.79592751 218.2236444 159.73046875 225.82617188 C159.61461789 239.27997222 159.49464603 252.7337317 159.375 266.1875 C139.905 266.1875 120.435 266.1875 100.375 266.1875 C99.22641338 246.66152747 99.22641338 246.66152747 99.09375 239.1081543 C99.07570313 238.23690918 99.05765625 237.36566406 99.0390625 236.46801758 C98.98137182 233.64930238 98.92819218 230.83052208 98.875 228.01171875 C98.83430853 225.99232844 98.79328519 223.9729448 98.75195312 221.9535675 C98.64435379 216.66249768 98.54039322 211.3713634 98.4375 206.0802002 C98.1371195 190.67572594 97.82517327 175.27149254 97.49560547 159.86761475 C97.41642443 156.16555639 97.33999804 152.4634592 97.26611328 148.7612915 C97.18228233 144.59079728 97.08971739 140.42058615 96.99023438 136.25043678 C96.95585491 134.75528187 96.92430487 133.2600584 96.89599609 131.76477623 C96.53144631 112.76023413 92.96729836 97.7869993 83.32202148 81.39135742 C80.375 76.37200689 80.375 76.37200689 80.375 74.1875 C79.54512573 73.91377563 79.54512573 73.91377563 78.69848633 73.63452148 C74.87249146 72.36675779 71.05573735 71.08340361 67.26171875 69.72265625 C46.86914659 62.50752862 26.92136823 59.95545223 5.375 59.9375 C4.11577728 59.93598938 4.11577728 59.93598938 2.83111572 59.93444824 C-11.82835022 59.94629033 -26.13336388 60.86322791 -40.625 63.1875 C-41.54958008 63.32671875 -42.47416016 63.4659375 -43.42675781 63.609375 C-61.23324173 66.35372072 -74.94140705 72.00803116 -86.625 86.1875 C-89.49448371 90.40764806 -91.24500463 94.56440027 -92.3125 99.5625 C-92.54324219 100.60148437 -92.77398437 101.64046875 -93.01171875 102.7109375 C-94.63056026 111.88780977 -94.87655444 121.0120136 -95.08984375 130.30859375 C-95.12746771 131.82124708 -95.16545673 133.33389136 -95.20378113 134.8465271 C-95.28511023 138.08364001 -95.36410759 141.32079791 -95.44122314 144.55801392 C-95.56297043 149.66662093 -95.68986875 154.77509125 -95.81787109 159.88354492 C-95.8616401 161.63203413 -95.90540226 163.38052351 -95.94915771 165.12901306 C-95.97103905 166.00321333 -95.99292038 166.8774136 -96.01546478 167.77810478 C-96.08249672 170.46396322 -96.1490112 173.14983404 -96.21539307 175.83570862 C-96.67500962 194.40205229 -97.17642259 212.96721789 -97.68275833 231.53233719 C-97.81327712 236.32217024 -97.94309195 241.11202242 -98.07301426 245.90187168 C-98.25649504 252.66376191 -98.44081689 259.4256287 -98.625 266.1875 C-118.095 266.1875 -137.565 266.1875 -157.625 266.1875 C-157.71558884 243.97651107 -157.78914906 221.76567367 -157.83224869 199.55454636 C-157.85279999 189.23958431 -157.880777 178.92474591 -157.92675781 168.60986328 C-157.96685471 159.61056498 -157.99248669 150.6113563 -158.00135398 141.61197114 C-158.00653037 136.85486634 -158.01853823 132.09801777 -158.04792023 127.34099579 C-158.24703196 93.77595463 -156.56698566 58.80702686 -131.625 33.1875 C-105.05695276 9.55109935 -70.14526578 2.16312562 -35.4765625 0.63671875 C-34.05907211 0.57396004 -34.05907211 0.57396004 -32.61294556 0.50993347 C-21.74346183 0.06397355 -10.87741751 -0.01175231 0 0 Z " fill="#FFFFFF" transform="translate(157.625,34.8125)"/>
<path d="M0 0 C100.65 0 201.3 0 305 0 C303.82397959 15.28826531 303.82397959 15.28826531 302 21.9375 C301.79213867 22.71528809 301.58427734 23.49307617 301.37011719 24.29443359 C294.16492555 49.83507445 294.16492555 49.83507445 289 55 C287.43112365 55.09591199 285.85792208 55.12187996 284.28611755 55.12025452 C282.76008109 55.12232076 282.76008109 55.12232076 281.2032156 55.12442875 C279.50825498 55.11903159 279.50825498 55.11903159 277.77905273 55.11352539 C276.57955773 55.11364593 275.38006273 55.11376646 274.1442194 55.11389065 C270.240659 55.11314105 266.33714567 55.10551066 262.43359375 55.09765625 C260.03194197 55.09618698 257.63028986 55.09516618 255.2286377 55.09460449 C246.2982536 55.0893499 237.36787634 55.07538885 228.4375 55.0625 C198.5209375 55.0315625 198.5209375 55.0315625 168 55 C168 122.65 168 190.3 168 260 C147.21 260 126.42 260 105 260 C105 192.35 105 124.7 105 55 C63.75 55 22.5 55 -20 55 C-18.23053014 47.03738563 -16.02072569 39.67984204 -13.375 32 C-12.97410156 30.79988281 -12.57320312 29.59976563 -12.16015625 28.36328125 C-8.74447012 18.4123195 -4.55170965 9.67238301 0 0 Z " fill="#FFFFFF" transform="translate(1049,41)"/>
<path d="M0 0 C1.03855058 -0.00199105 2.07710117 -0.0039821 3.14712298 -0.00603348 C4.87180192 -0.00166422 4.87180192 -0.00166422 6.63132286 0.00279331 C7.84584676 0.00193889 9.06037066 0.00108446 10.31169832 0.00020415 C13.69346845 -0.00116261 17.07518124 0.00197948 20.45694447 0.00698221 C24.09975181 0.01128755 27.74255727 0.00984022 31.38536644 0.00907993 C37.70031342 0.00855475 44.01525009 0.01170095 50.33019447 0.01731777 C59.46062276 0.02543355 68.59104605 0.02804807 77.72147755 0.02930576 C92.53382587 0.03149616 107.34616869 0.03815591 122.15851402 0.04760838 C136.5501153 0.05678281 150.9417151 0.06386349 165.33331871 0.06811619 C166.66323707 0.06851027 166.66323707 0.06851027 168.02002247 0.06891232 C172.46775035 0.07021733 176.91547825 0.07148104 181.36320615 0.07272422 C218.2806564 0.08309645 255.19810041 0.10071443 292.11554527 0.12304783 C291.0047205 4.10779122 289.8920745 8.09202394 288.77911949 12.07617283 C288.46718147 13.19524021 288.15524345 14.31430759 287.83385277 15.46728611 C285.4315795 24.06187178 282.90727369 32.6064187 280.24054527 41.12304783 C279.84708485 42.39771605 279.4538567 43.672456 279.06085777 44.94726658 C276.24394255 53.99465056 276.24394255 53.99465056 275.11554527 55.12304783 C273.49598188 55.21907805 271.87221445 55.24492638 270.24980736 55.24330235 C269.19886359 55.24467984 268.14791983 55.24605734 267.06512928 55.24747658 C265.89768209 55.24387847 264.73023489 55.24028036 263.52741051 55.23657322 C262.28826676 55.23669375 261.04912302 55.23681429 259.77242947 55.23693848 C256.4098207 55.23631342 253.04727298 55.23135433 249.68467522 55.22432804 C246.53341835 55.21864795 243.3821631 55.21836573 240.23090172 55.21765232 C231.00494486 55.21239763 221.77899462 55.19843658 212.55304527 55.18554783 C181.64648277 55.15461033 181.64648277 55.15461033 150.11554527 55.12304783 C150.11554527 122.77304783 150.11554527 190.42304783 150.11554527 260.12304783 C130.64554527 260.12304783 111.17554527 260.12304783 91.11554527 260.12304783 C91.11554527 192.47304783 91.11554527 124.82304783 91.11554527 55.12304783 C49.86554527 55.12304783 8.61554527 55.12304783 -33.88445473 55.12304783 C-33.0560879 50.98121371 -32.07979365 47.9023625 -30.44304848 44.07226658 C-29.94563148 42.90574558 -29.44821449 41.73922459 -28.93572426 40.53735447 C-28.3985668 39.2947543 -27.86062938 38.05249104 -27.32195473 36.81054783 C-26.91586983 35.87104786 -26.91586983 35.87104786 -26.50158119 34.91256809 C-23.2745772 27.45792854 -20.03836622 20.00315154 -16.50945473 12.68554783 C-15.94484535 11.51121189 -15.38023598 10.33687595 -14.79851723 9.12695408 C-11.15526388 3.40927688 -6.87382677 -0.00289546 0 0 Z " fill="#F24E00" transform="translate(1741.8844547271729,40.876952171325684)"/>
<path d="M0 0 C1.05150742 -0.01140015 2.10301483 -0.02280029 3.18638611 -0.0345459 C5.41629037 -0.05341328 7.64624998 -0.06650092 9.8762207 -0.07421875 C13.21476634 -0.09339064 16.55071647 -0.15535386 19.88867188 -0.21875 C34.3072612 -0.36121094 46.63983493 1.5780201 60.21484375 6.40625 C61.28694092 6.7686377 62.35903809 7.13102539 63.46362305 7.50439453 C65.85124236 8.34582466 68.18895614 9.25004211 70.52734375 10.21875 C71.33655273 10.54786377 72.14576172 10.87697754 72.97949219 11.21606445 C81.11248899 14.61970288 88.67753174 18.85607547 96.21484375 23.40625 C97.58382812 24.20289063 97.58382812 24.20289063 98.98046875 25.015625 C100.76747393 26.07783088 102.50177399 27.22851454 104.21484375 28.40625 C104.21484375 29.06625 104.21484375 29.72625 104.21484375 30.40625 C89.65743026 35.04888457 78.82871725 32.65079371 64.69995117 28.02197266 C48.21215191 22.64949585 30.74596428 20.70123702 14.32421875 27.625 C8.22702378 30.91091346 4.17834188 35.11838497 1.21484375 41.40625 C-4.99344784 62.63707431 3.82616241 86.68453631 13.74780273 105.20532227 C20.72114079 117.88133671 28.86964647 129.3549394 38.21484375 140.40625 C39.09039112 141.4565752 39.96537149 142.50737326 40.83984375 143.55859375 C46.65655343 150.52385889 52.66928889 157.27393534 58.84423828 163.92236328 C60.21571303 165.40719113 61.57446985 166.90267366 62.9296875 168.40234375 C71.25629057 177.6033074 79.78189462 186.66639572 89.24609375 194.71484375 C91.49265882 196.64492842 93.66068279 198.65043139 95.83984375 200.65625 C102.04103244 206.24205356 108.58164966 211.34861555 115.21484375 216.40625 C115.80394531 216.85758301 116.39304687 217.30891602 117 217.77392578 C148.64149819 241.89622179 189.87058146 266.779095 231.21484375 263.40625 C235.79585313 262.53637825 239.92518069 261.21878369 244.21484375 259.40625 C245.00632812 259.10203125 245.7978125 258.7978125 246.61328125 258.484375 C251.42759804 256.1577535 253.11133096 253.16696051 255.15234375 248.28125 C261.01661342 230.58938239 256.61258055 213.97541873 250.58984375 197.03125 C249.8149216 194.80672223 249.04441159 192.58073084 248.27627563 190.35385132 C247.80264134 188.985466 247.32431081 187.61869461 246.84066772 186.2538147 C245.21484375 181.62296986 245.21484375 181.62296986 245.21484375 179.40625 C257.14684111 177.91681898 257.14684111 177.91681898 261.28125 180.89453125 C262.78709006 183.01931309 264.04372234 185.17837335 265.22021484 187.50048828 C266.40847588 189.77725943 267.70624991 191.97426597 269.015625 194.18359375 C284.1166867 219.79968044 298.71499347 248.02058328 291.64794922 278.88183594 C287.51405171 291.0277945 277.38493864 299.77824065 266.21484375 305.40625 C223.7276023 321.26485989 175.76290955 306.91012699 136.21484375 289.40625 C121.32492757 282.41565885 107.03721507 274.31087345 93.21484375 265.40625 C92.13332031 264.71015625 91.05179688 264.0140625 89.9375 263.296875 C61.70689617 244.74851506 34.34069689 223.02798793 12.21484375 197.40625 C11.5290625 196.67019531 10.84328125 195.93414062 10.13671875 195.17578125 C-24.10027982 158.41411192 -55.06299406 107.26897103 -53.96875 55.58203125 C-53.136312 41.18262498 -50.57698341 27.65082426 -39.78515625 17.40625 C-39.13933594 16.74109375 -38.49351562 16.0759375 -37.828125 15.390625 C-27.45003294 5.30134812 -14.33849146 0.12225964 0 0 Z " fill="#F24E00" transform="translate(766.78515625,-0.40625)"/>
<path d="M0 0 C1.51062012 0.01957764 1.51062012 0.01957764 3.05175781 0.03955078 C15.66557436 0.3290814 25.0404512 1.20247555 34.34375 10.62890625 C45.24077816 23.06496274 49.69745322 34.8893139 48.75 51.375 C46.56496533 65.77558281 39.11548357 76.74381841 27.75 85.75 C16.73899984 93.36307433 1.88990025 96.19890659 -11.35546875 93.81640625 C-20.12298246 91.3161647 -26.38627287 87.31845087 -33.25 81.375 C-34.11109375 80.63765625 -34.9721875 79.9003125 -35.859375 79.140625 C-45.15869332 70.57066498 -47.42146247 60.4037563 -48.4375 48.10546875 C-48.50482462 45.83747075 -48.40761562 43.63893352 -48.25 41.375 C-48.19328125 40.2921875 -48.1365625 39.209375 -48.078125 38.09375 C-47.2322359 28.82925034 -44.39592449 23.27371598 -38.25 16.375 C-37.67894531 15.70726562 -37.10789062 15.03953125 -36.51953125 14.3515625 C-26.70892546 3.67874195 -14.15010266 -0.21179938 0 0 Z " fill="#FFFFFF" transform="translate(758.25,216.625)"/>
<path d="M0 0 C9.29390336 6.44467751 16.3845067 15.15352009 20 26 C21.17769024 39.89674485 15.85506813 56.51746407 8 68 C4.92056875 70.95866924 1.98149319 72.52764505 -2 74 C-2.72316406 74.33 -3.44632813 74.66 -4.19140625 75 C-9.89295119 77.22112359 -15.64724465 77.27205831 -21.6875 77.3125 C-22.49566162 77.31813965 -23.30382324 77.3237793 -24.13647461 77.32958984 C-32.5469722 77.22758155 -38.48138259 75.26044832 -45 70 C-45.6094043 69.51305664 -46.21880859 69.02611328 -46.84667969 68.52441406 C-54.45676292 62.23357479 -60.13147772 55.08811376 -61.21875 44.96289062 C-61.92988039 32.05587409 -60.8216442 18.21690425 -52 8 C-38.87714703 -4.65417965 -16.74465491 -7.64333852 0 0 Z " fill="#FFFFFF" transform="translate(897,112)"/>
<path d="M0 0 C1.47823242 -0.00386719 1.47823242 -0.00386719 2.98632812 -0.0078125 C4.51483398 0.00378906 4.51483398 0.00378906 6.07421875 0.015625 C7.08162109 0.00789063 8.08902344 0.00015625 9.12695312 -0.0078125 C17.50883825 0.01402955 24.88962051 0.4387182 31.21875 6.44921875 C37.06921189 13.33647135 37.4177349 20.56316073 36.76171875 29.265625 C36.67921875 30.51472656 36.59671875 31.76382813 36.51171875 33.05078125 C35.7182405 41.30791431 34.18642368 46.94626978 28.76171875 53.265625 C28.18421875 54.090625 27.60671875 54.915625 27.01171875 55.765625 C19.22465324 60.95700201 2.81209147 59.05363314 -6.23828125 58.265625 C-11.74119638 57.13185857 -16.43770941 55.78284235 -19.80859375 51.0703125 C-20.87859438 48.80310836 -21.62603069 46.69291623 -22.23828125 44.265625 C-22.49544922 43.37387573 -22.49544922 43.37387573 -22.7578125 42.46411133 C-23.75528881 37.89994762 -23.5089386 33.16852814 -23.55078125 28.515625 C-23.57978516 27.45601562 -23.60878906 26.39640625 -23.63867188 25.3046875 C-23.69138876 18.76779392 -23.20377059 13.62996017 -19.23828125 8.265625 C-17.0546875 6.2421875 -17.0546875 6.2421875 -14.80078125 4.890625 C-14.05957031 4.42914063 -13.31835938 3.96765625 -12.5546875 3.4921875 C-8.29305008 1.23560377 -4.85301929 0.01234977 0 0 Z " fill="#FFFFFF" transform="translate(930.23828125,47.734375)"/>
<path d="M0 0 C0.78632812 -0.020625 1.57265625 -0.04125 2.3828125 -0.0625 C8.87795228 -0.10565707 14.48343071 1.23903097 19.625 5.5 C24.25887559 10.45515763 23.26939831 17.90675314 23.25 24.25 C23.35248047 25.82201172 23.35248047 25.82201172 23.45703125 27.42578125 C23.50267189 30.42561631 23.38605161 32.46690167 22.25 35.25 C17.07687988 40.02388096 11.23984217 43.27009996 4.1484375 43.234375 C-14.26131545 42.00977946 -14.26131545 42.00977946 -20.75 36.25 C-22.54924993 29.50281278 -21.88900403 22.17567123 -21.75 15.25 C-21.770625 13.950625 -21.79125 12.65125 -21.8125 11.3125 C-20.10281069 6.384572 -16.07971763 3.93898253 -11.75 1.25 C-7.83316136 -0.05561288 -4.08317352 0.02625835 0 0 Z " fill="#FFFFFF" transform="translate(982.75,2.75)"/>
</svg>
